<?xml version="1.0" encoding="utf-8"?>
<!-- Generator: Adobe Illustrator 27.0.0, SVG Export Plug-In . SVG Version: 6.00 Build 0)  -->
<svg version="1.1" id="Layer_1" xmlns="http://www.w3.org/2000/svg" xmlns:xlink="http://www.w3.org/1999/xlink" x="0px" y="0px"
	 viewBox="0 0 1080 720" style="enable-background:new 0 0 1080 720;" xml:space="preserve">
<style type="text/css">
	.st0{stroke:#E85BD8;stroke-miterlimit:10;}
	.st1{fill:#FFFFFF;}
</style>
<circle class="st0" cx="541.2" cy="360.5" r="29.7"/>
<path class="st1" d="M534.5,368c0,0-2.6,3.3-9.5,2.9c0,0,5.5,3.7,11.8,2.9c0,0,6.6-0.5,11.3-5.2c0,0,3.7-3.1,5.2-8.3
	c0,0,1.2-4.5,0.7-6.6c0,0,1.3-0.6,3.3-3.4c0,0-2.9,1.1-3.8,0.9c0,0,2.2-1,3.1-3.7c0,0-2.6,1.6-4.3,1.6c0,0-1.7-2.5-6.3-1.9
	c0,0-5.6,1.3-5,8.1c0,0-5.1,0.1-9.6-3.1c0,0-2.4-1.5-4.2-4c0,0-2.8,5.4,1.9,8.9l0.1,0.2c0,0-2.2-0.1-3-0.9c0,0-0.4,4,3.7,6.2
	l1.6,0.6c0,0-0.7,0.3-2.9,0.2c0,0,0.6,1.9,2,3C530.6,366.5,532.3,368,534.5,368z"/>
</svg>
